<?xml version="1.0" encoding="utf-8"?>
<!-- Svg Vector Icons : http://www.onlinewebfonts.com/icon -->
<!DOCTYPE svg PUBLIC "-//W3C//DTD SVG 1.1//EN" "http://www.w3.org/Graphics/SVG/1.1/DTD/svg11.dtd">
<svg version="1.1" xmlns="http://www.w3.org/2000/svg" xmlns:xlink="http://www.w3.org/1999/xlink" x="0px" y="0px" viewBox="0 0 256 256" enable-background="new 0 0 256 256" xml:space="preserve">
<metadata> Svg Vector Icons : http://www.onlinewebfonts.com/icon </metadata>
<g><g><path fill="#000000" d="M238.3,149.7c0.2,0,0.4-0.1,0.7-0.2c2.5-0.8,13.3-4.2-0.4-14.9c-10.3-8.1-23.1-8.5-32.8-6c0.2-0.9,0.3-1.8,0.3-2.7c-0.1-5.8-4.3-10.5-9.4-10.4l-6.3,0.1l-15.9-35.7c1.6,0.7,3.4,1.1,5.3,1.1c0.3,0,0.6,0,0.9,0c0.1,0,0.3,0,0.4,0c1,0,1.9-0.8,1.9-1.9V54.6c0-1-0.9-1.9-1.9-1.9c-0.1,0-0.2,0-0.4,0c-0.3,0-0.6,0-0.9,0c-7.7,0-13.9,6.2-14,13.8c-1.3-2.5-3.8-4.1-6.8-4.1c-4.2,0-7.7,3.4-7.7,7.7c0,0.5,0,1,0.1,1.5l-9.2,4.9c-2,1.1-2.8,3.6-1.7,5.7c1.1,2,3.6,2.8,5.7,1.7l9.1-4.8c0,1.1,0.2,2.2,0.7,3.3l12.7,28.5c-1.9,0.9-3.3,2.6-3.9,4.7l-7.7,25.7c-1.1,3.8,0.8,7.8,4.5,9.3l-5.1,9.2c-1.5-1.2-3.5-2-5.6-2H127c-3.9,0-7.1,2.5-8.3,5.9h-9.2c1.8-2.9,2.8-6.1,2.8-9.6v-16.7c0-5.1-2.2-9.8-5.8-13.4c3.7-2.3,6-6.1,6-10.3c0-7.1-6.6-12.9-14.8-12.9H44c-8.2,0-14.8,5.8-14.8,12.9c0,3.2,1.4,6.2,3.7,8.5c-8.6,5.1-15.4,13.1-18.6,20.9c-3,7.4-6.7,13.7-2.4,21.5c2.8,5,7.6,8.4,13.7,9.3c0.4,16.2,13.7,29.3,30,29.3c16.2,0,29.4-12.9,30-29c2.3,0,3.7,0,3.7,0c0.4,0,0.9,0,1.3,0c0.8,4,4.4,7.1,8.6,7.1H158c3.5,0,6.6-2.1,8-5.1l21.7-39.5l3.8,0c-8.5,10.6-14,34-14,34c1.8,0,4.7,0.7,8.6-1.2c0,0.1,0,0.2,0,0.3c0,16.6,13.4,30,30,30c16.6,0,30-13.4,30-30C246,162.1,243.1,155,238.3,149.7z M55.6,183.1c-5.1,0-9.3-3.9-9.8-8.9c6.1,0,13.1,0,19.7,0C64.9,179.2,60.7,183.1,55.6,183.1z M216,179.6c-5.5,0-9.9-4.4-9.9-9.9c0-5.5,4.4-9.9,9.9-9.9c5.4,0,9.9,4.4,9.9,9.9C225.9,175.2,221.5,179.6,216,179.6z"/></g></g>
</svg>