<!--?xml version="1.0" encoding="utf-8"?-->
<!-- Svg Vector Icons : http://www.onlinewebfonts.com/icon -->

<svg version="1.1" xmlns="http://www.w3.org/2000/svg" xmlns:xlink="http://www.w3.org/1999/xlink" x="0px" y="0px" viewBox="0 0 256 256" enable-background="new 0 0 256 256" xml:space="preserve">
<metadata> Svg Vector Icons : http://www.onlinewebfonts.com/icon </metadata>
<g><g><path fill="#ffffff" data-title="Layer 0" xs="0" d="M223,10H33c-12.7,0-23,10.3-23,23V223c0,12.7,10.3,23,23,23h111.2v-90h-30.3V121h30.3V95.1c0-30,18.3-46.4,45.1-46.4c12.8,0,23.8,1,27,1.4v31.4h-18.5c-14.5,0-17.4,6.9-17.4,17.1v22.4h34.7l-4.5,35.1h-30.2v90H223c12.7,0,23-10.3,23-23V33C246,20.3,235.7,10,223,10z"/></g></g>
</svg>