<!--?xml version="1.0" encoding="utf-8"?-->
<!-- Svg Vector Icons : http://www.onlinewebfonts.com/icon -->

<svg version="1.1" xmlns="http://www.w3.org/2000/svg" xmlns:xlink="http://www.w3.org/1999/xlink" x="0px" y="0px" viewBox="0 0 256 256" enable-background="new 0 0 256 256" xml:space="preserve">
<metadata> Svg Vector Icons : http://www.onlinewebfonts.com/icon </metadata>
<g><g><g><path fill="#ffffff" data-title="Layer 0" xs="0" d="M98.5,10.8c-3.8,2-4.3,4.1-4.3,16.1c0,10.1,0.4,12.1,2.5,14.4c2,2,4.5,2.5,12.5,2.5h6.4v3.8v3.8l-1.8,0.3c-7.9,1.3-15.5,3.3-21.4,5.7c-1.7,0.7-3.1,1-3.3,0.7c-0.6-1-3.6-2-9.6-3.1c-7.9-1.4-11-1.4-14.6-0.2c-4,1.3-5.3,2.3-12.6,8.9c-8.6,7.8-10.9,10.9-12.1,16.3C39.7,83,40.9,96.8,42,98.9c0.8,1.5,0.8,1.6-1.6,6.1c-6.8,13.6-10.1,27.7-10.1,43.5c0,33.4,16.5,63.7,44.8,82.1c11.1,7.1,23.8,12.1,37.9,14.5c6.7,1.1,23.3,1.1,30,0c10.8-1.9,19.4-4.7,28.6-9.2c21.4-10.7,38-28.7,47.2-51c4.5-11.1,6.9-23.6,6.9-36.5c0-15.6-3.2-29.6-10.1-43.3c-2.3-4.6-2.3-4.7-1.6-6.1c0.5-1,1-4.2,1.5-9.3c0.7-7.6,0.6-8-0.3-11.1c-0.6-1.8-1.8-4.4-2.8-5.8c-1.8-2.7-14-14.2-17-16c-2.7-1.7-6.9-2.9-10-2.9c-6,0-17.6,2.7-18.6,4.2c-0.1,0.2-2.1-0.3-4.4-1.1c-5.2-2-12-3.8-17.4-4.8c-2.3-0.4-4.4-0.8-4.7-1c-0.2-0.1-0.4-1.8-0.4-3.8v-3.5l1.7-0.3c1-0.2,3.1-0.2,5-0.1c1.8,0.1,5,0.1,7.1-0.1c3.5-0.3,4-0.5,5.5-1.9c2.3-2.3,2.7-4.8,2.5-16.3c-0.1-10.6-0.4-11.7-3.4-13.9c-1.3-1-1.7-1-29.8-1.1C102.2,9.9,100,10,98.5,10.8z M141.5,81.8c6.3,1.3,11.1,3,16.7,5.8c6.5,3.2,11.2,6.6,16.7,11.9c6.2,6,10.1,11.3,13.9,18.8c5,10.1,7,18.9,7,30.3c0,10.6-2.1,19.8-6.6,29.3c-4.2,8.9-12.6,19.2-20.4,24.9c-9.2,6.8-20.5,11.5-31.6,13.1c-5.2,0.7-18.2,0.3-22.9-0.8c-27.6-6.1-48.2-27.4-53.2-55c-1.1-6.1-1.1-17.3,0-23.1c2.6-13.9,8.4-25.3,17.9-35.2c11.1-11.7,25.2-18.9,40.6-20.8C125,80.3,136.1,80.7,141.5,81.8z"/><path fill="#ffffff" data-title="Layer 1" xs="1" d="M164.4,106.7c-0.9,0.3-7.9,6.9-19.9,18.9L126.1,144l-12.9-13c-13.8-13.9-14-14-17.9-13.3c-1.9,0.4-4.7,2.6-5.8,4.6c-0.9,1.7-0.9,4.9,0,6.5c1.2,2.3,32.8,33.3,34.3,33.7c2,0.5,5.4,0,6.6-1.1c0.6-0.5,10.8-10.7,22.7-22.6l21.6-21.7l-0.2-2.9c-0.1-2.2-0.5-3.3-1.5-4.6C171,107,167.4,105.7,164.4,106.7z"/></g></g></g>
</svg>