<!--?xml version="1.0" encoding="utf-8"?-->
<!-- Svg Vector Icons : http://www.onlinewebfonts.com/icon -->

<svg version="1.1" xmlns="http://www.w3.org/2000/svg" xmlns:xlink="http://www.w3.org/1999/xlink" x="0px" y="0px" viewBox="0 0 256 256" enable-background="new 0 0 256 256" xml:space="preserve">
<metadata> Svg Vector Icons : http://www.onlinewebfonts.com/icon </metadata>
<g><g><g><path fill="#ffff" data-title="Layer 0" xs="0" d="M137.3,2.2c-0.6,0.8-11.1,22.9-11.7,24.6c-1,3.1,2.4,7.3,5.8,7.3c2.2,0,5.1-1.6,5.8-3.2c0.3-0.7,1.5-7,2.8-14.1c2-11.6,2.2-13,1.5-14.1C140.7,1.5,138.2,1.2,137.3,2.2z"/><path fill="#ffffff" data-title="Layer 1" xs="1" d="M104,5c-0.5,0.4-0.8,1.3-0.8,2c0,0.6,1.6,5.7,3.6,11.2c5.8,16.5,6.1,17,10.7,17c2,0,2.6-0.3,4.1-1.8c2.5-2.5,2.5-5.3-0.2-9.1c-5.5-8-12.7-18.4-13.5-19.2C107,4,105.1,3.9,104,5z"/><path fill="#ffffff" data-title="Layer 2" xs="2" d="M151.9,27.7c-13.6,4.8-14.7,5.4-15.1,9.1c-0.5,4.1,3.3,7.6,7.2,6.8c0.7-0.2,6.3-3.8,12.3-8.1c11.6-8.2,12.4-9.1,10.5-11.2c-0.5-0.5-1.2-1-1.7-1C164.7,23.3,158.8,25.3,151.9,27.7z"/><path fill="#ffffff" data-title="Layer 3" xs="3" d="M54.3,27.4c-2,0.5-4.4,2.6-5.2,4.6c-0.3,0.7-5.8,21.9-12.3,47l-11.7,45.7l-0.1,7.2c0,5.4,0.3,8.1,0.9,10.6c2.8,10.4,10.4,20.3,19.3,25.4c1.5,0.9,2.7,1.9,2.6,2.2s-2.3,8.9-4.7,19c-5,20.4-6,23.2-9.3,25c-2.7,1.5-4.6,1.5-10.8-0.2c-4.3-1.1-5.5-1.2-7-0.8c-6.8,2-8.2,12.1-2.1,15.2c0.8,0.4,13,3.7,27.1,7.3c19.2,4.9,26.1,6.5,27.4,6.2c5-0.9,7.9-7.4,5.6-12.2c-1.3-2.6-3.7-3.9-9.3-5.2c-2.7-0.6-5.6-1.4-6.4-1.8c-2-1-4.1-4-4.4-6.2c-0.2-1.8,2.8-14.7,9.7-41l0.5-1.9l5-0.3c15.5-0.9,29.7-11.1,35.4-25.6c1.8-4.6,24.6-93.8,24.6-96.4c0-2.5-1.7-5.2-4.1-6.4c-1.4-0.7-62-16.4-67.6-17.5C56.6,27.1,55.2,27.2,54.3,27.4z M87.5,50.2c13.6,3.5,24.9,6.4,25,6.5c0.2,0.2-2.5,11.2-4.7,19.6l-0.5,1.7h-20H67.2l-0.7,2.9c-0.5,1.7-3.4,13.2-6.6,25.7c-5.6,21.8-5.8,22.9-5.5,26.8c0.6,9.8,6.1,18,14.8,22.3c3.7,1.8,3.8,1.9,2.3,2.2c-2.9,0.6-9.3,0.5-12.3-0.3c-4.5-1.2-7.8-3.2-11.7-7c-6-5.9-9-14.5-7.8-21.9c0.3-1.9,5.3-21.8,11-44.4c8.5-33.2,10.6-41,11.2-40.8C62.3,43.8,73.8,46.7,87.5,50.2z"/><path fill="#ffffff" data-title="Layer 4" xs="4" d="M169.1,47.5l-34,7.6l-1.8,1.8c-1.4,1.4-1.9,2.4-2.1,4.1c-0.2,1.8,2.2,13.2,10.2,48.9c5.8,26.1,11,48,11.7,49.9c3.6,8.9,11.2,17.3,20,21.7c3.7,1.9,10.5,3.8,14.9,4.1l4.3,0.4l4.3,18.6c2.4,10.2,4.4,20.2,4.5,22c0.4,6.6-2,9.1-10.5,10.7c-7.4,1.5-9.8,3.6-9.8,8.5c0.1,4.8,3.4,8.6,7.4,8.6c2.1,0,52.1-11,53.6-11.9c1.9-1,3.6-3.6,4-5.9c0.3-1.9,0.1-2.8-0.9-4.7c-2.4-4.8-5.8-5.7-13.4-3.8c-6.9,1.8-10.2,1.1-13-2.6c-0.8-1-5.9-22.5-10-41.6c-0.3-1.5-0.2-1.7,2.7-3.3c9.1-4.8,16.4-14,19.8-24.8c1-3.4,1.2-4.9,1.2-11.4l-0.1-7.5L222,90.8c-7.7-34.3-10.6-46.6-11.5-47.8c-1.1-1.6-4.4-3.3-6.4-3.1C203.5,39.9,187.7,43.3,169.1,47.5z M199.1,56.4c0,0.1,2,9,4.4,19.7c2.4,10.8,4.4,19.9,4.4,20.2c0,0.5-4.1,0.7-20.4,0.7c-11.2,0-20.4,0.2-20.4,0.3c0,0.2,2.4,11.2,5.4,24.6c6.2,28.1,6.6,29,12.3,34.7c5.8,5.7,12.5,8.4,20.1,7.8c2.2-0.2,4-0.2,4-0.1c0,0.2-1.4,1.1-3.2,2.3c-10.9,7.1-25.3,5.2-34-4.6c-4.7-5.3-4.7-5.4-15.1-51.6c-5.2-23.4-9.4-42.6-9.3-42.7c0.3-0.3,49.3-11.4,50.7-11.4C198.6,56.3,199.1,56.3,199.1,56.4z"/></g></g></g>
</svg>