<!--?xml version="1.0" encoding="utf-8"?-->
<!-- Svg Vector Icons : http://www.onlinewebfonts.com/icon -->

<svg version="1.1" xmlns="http://www.w3.org/2000/svg" xmlns:xlink="http://www.w3.org/1999/xlink" x="0px" y="0px" viewBox="0 0 256 256" enable-background="new 0 0 256 256" xml:space="preserve">
<metadata> Svg Vector Icons : http://www.onlinewebfonts.com/icon </metadata>
<g><g><g><path fill="#ffffff" data-title="Layer 0" xs="0" d="M58.9,28.9v18.9h13.4h13.4V28.9V10H72.2H58.9V28.9z"/><path fill="#ffffff" data-title="Layer 1" xs="1" d="M170.4,28.9v18.9h13.4h13.4V28.9V10h-13.4h-13.4V28.9z"/><path fill="#ffffff" data-title="Layer 2" xs="2" d="M10,138.4V246h118h118V138.4V30.7h-19.4h-19.4v13.6v13.6h-23.5h-23.5V44.3V30.7H128H95.7v13.6v13.6H72.2H48.7V44.3V30.7H29.4H10V138.4z M219.3,152.2v67.1H128H36.7v-67.1V85.1H128h91.3V152.2z"/><path fill="#ffffff" data-title="Layer 3" xs="3" d="M53.3,124.3v18.9h18.9h18.9v-18.9v-18.9H72.2H53.3V124.3z"/><path fill="#ffffff" data-title="Layer 4" xs="4" d="M109.1,124.3v18.9H128h18.9v-18.9v-18.9H128h-18.9V124.3z"/><path fill="#ffffff" data-title="Layer 5" xs="5" d="M164.9,124.3v18.9h18.9h18.9v-18.9v-18.9h-18.9h-18.9V124.3z"/><path fill="#ffffff" data-title="Layer 6" xs="6" d="M53.3,180.1V199h18.9h18.9v-18.9v-18.9H72.2H53.3V180.1z"/><path fill="#ffffff" data-title="Layer 7" xs="7" d="M109.1,180.1V199H128h18.9v-18.9v-18.9H128h-18.9V180.1z"/><path fill="#ffffff" data-title="Layer 8" xs="8" d="M164.9,180.1V199h18.9h18.9v-18.9v-18.9h-18.9h-18.9V180.1z"/></g></g></g>
</svg>