<!--?xml version="1.0" encoding="utf-8"?-->
<!-- Svg Vector Icons : http://www.onlinewebfonts.com/icon -->

<svg version="1.1" xmlns="http://www.w3.org/2000/svg" xmlns:xlink="http://www.w3.org/1999/xlink" x="0px" y="0px" viewBox="0 0 256 256" enable-background="new 0 0 256 256" xml:space="preserve">
<metadata> Svg Vector Icons : http://www.onlinewebfonts.com/icon </metadata>
<g><g><g><path fill="#ffffff" data-title="Layer 0" xs="0" d="M120.8,10.2c-32.7,3.5-59,27.5-65.4,59.9c-0.8,4.2-1,6.7-1,13.7c0,9.5,0.8,15.2,3.5,23.2c1.9,5.8,6.3,14.5,9.7,19.2c1.5,2.1,2.8,4,2.9,4.2c0,0.1-2,1.9-4.5,3.8c-23.2,17.5-38.1,44.2-40.9,73.3c-0.3,2.9-0.5,10.4-0.4,16.6c0.1,10.9,0.2,11.4,1.3,13.6c1.4,3,4.2,5.7,7.2,7.2l2.3,1.2H128h92.6l2.3-1.2c3-1.4,5.7-4.2,7.2-7.2c1.1-2.2,1.2-2.7,1.3-13.6c0.1-6.3,0-13.7-0.4-16.6c-1.9-19.5-9-37.7-20.9-53.5c-4.4-6-13.7-15.2-19.7-19.7c-2.7-2-4.9-3.7-5-3.7c-0.1,0,0.9-1.5,2.2-3.2c6.3-8.3,10.8-18.6,13.1-29.9c1.5-7.4,1.5-20,0-27.5c-6-29.9-28.9-52.9-58.6-58.8C137.1,10.3,125.3,9.7,120.8,10.2z M138.7,40.8c8.4,2.2,14.8,5.9,21,12.2c5.9,6,9.6,12.6,11.6,20.9c1.1,4.4,1.1,15.4,0,19.8c-2.6,10.5-8.7,19.6-17.1,25.7c-4.7,3.4-6.7,5.4-8.1,8c-1.1,2-1.2,2.9-1.2,6.5c0,3.6,0.2,4.5,1.2,6.5c1.8,3.5,5.1,6.1,9.6,8c21.4,8.6,38,27.7,43.9,50.5c1.1,4.2,2.3,12.4,2.3,15.7v2.2H128H54l0.3-4.8c1.9-27.7,20-53.1,45.3-63.4c5.2-2.1,8.4-4.6,10.2-8.2c1.1-2,1.2-2.9,1.2-6.5c0-3.6-0.2-4.5-1.2-6.5c-1.3-2.5-3.6-4.8-8.2-8.1c-8-5.7-14.4-15.4-17-25.7c-1.1-4.4-1.1-15.4,0-19.8c2.1-8.3,5.9-15.1,11.9-21.1c6.8-6.9,14.3-10.9,23.7-12.7C124.9,39.2,134.1,39.5,138.7,40.8z"/></g></g></g>
</svg>