<!--?xml version="1.0" encoding="utf-8"?-->
<!-- Svg Vector Icons : http://www.onlinewebfonts.com/icon -->

<svg version="1.1" xmlns="http://www.w3.org/2000/svg" xmlns:xlink="http://www.w3.org/1999/xlink" x="0px" y="0px" viewBox="0 0 256 256" enable-background="new 0 0 256 256" xml:space="preserve">
<metadata> Svg Vector Icons : http://www.onlinewebfonts.com/icon </metadata>
<g><g><g><path fill="#495E57" data-title="Layer 0" xs="0" d="M110.9,53.3c-9,21-16.7,38.4-17.1,38.9c-0.4,0.5-13.9,2-41,4.7c-22.2,2.2-41.3,4.2-42.3,4.4c-1.8,0.4-0.9,1.2,30.1,27.7c21.9,18.7,31.9,27.6,31.9,28.4c0.1,0.7-4.1,19.6-9.2,42.2c-5.1,22.6-9.2,41.1-9,41.2c0.1,0.1,16.5-9.8,36.5-22c20-12.2,36.6-22.2,36.9-22.2s16.9,10,36.9,22.2c19.9,12.2,36.4,22.1,36.5,22c0.1-0.1-4-18.7-9-41.2c-5.1-22.6-9.3-41.6-9.2-42.2c0-0.8,10-9.8,31.9-28.4c17.5-15,31.6-27.4,31.3-27.5c-0.4-0.1-19.5-2.2-42.6-4.5l-41.9-4.3L144.7,54c-9.2-21.3-16.9-38.8-17.1-38.8S119.9,32.4,110.9,53.3z"/></g></g></g>
</svg>