<!--?xml version="1.0" encoding="utf-8"?-->
<!-- Svg Vector Icons : http://www.onlinewebfonts.com/icon -->

<svg version="1.1" xmlns="http://www.w3.org/2000/svg" xmlns:xlink="http://www.w3.org/1999/xlink" x="0px" y="0px" viewBox="0 0 256 256" enable-background="new 0 0 256 256" xml:space="preserve">
<metadata> Svg Vector Icons : http://www.onlinewebfonts.com/icon </metadata>
<g><g><path fill="#ffffff" data-title="Layer 0" xs="0" d="M246,75.5c0-3.8-0.1-5.3-0.1-7.1c-0.1-5.3-0.4-10.6-1.3-15.4c-1-5.2-2.3-9.9-4.7-14.7c-2.4-4.8-5.8-9-9.4-12.7c-3.7-3.6-7.9-7-12.7-9.4c-4.7-2.4-9.5-3.7-14.7-4.7c-4.8-0.9-10.1-1.3-15.4-1.3c-1.8,0-3.3,0-7.1-0.1c-3.6,0-6.5,0-8.7,0c-11,0-76.6,0-87.7,0c-2.2,0-5.1,0-8.7,0c-3.8,0-5.3,0.1-7.1,0.1c-5.3,0.1-10.6,0.4-15.4,1.3c-5.2,1-9.9,2.3-14.7,4.7c-4.8,2.4-9,5.8-12.7,9.4c-3.6,3.7-7,7.9-9.4,12.7c-2.4,4.7-3.7,9.5-4.7,14.7c-0.9,4.8-1.3,10.1-1.3,15.4c0,1.8,0,3.3-0.1,7.1c0,3.6,0,6.5,0,8.7v87.7c0,2.2,0,5.1,0,8.7c0,3.8,0.1,5.3,0.1,7.1c0.1,5.3,0.4,10.6,1.3,15.4c1,5.2,2.3,9.9,4.7,14.7c2.4,4.8,5.8,9,9.4,12.7c3.7,3.6,7.9,7,12.7,9.4c4.7,2.4,9.5,3.7,14.7,4.7c4.8,0.9,10.1,1.3,15.4,1.3c1.8,0,3.3,0,7.1,0.1c3.6,0,6.5,0,8.7,0c11,0,76.6,0,87.7,0c2.2,0,5.1,0,8.7,0c3.8,0,5.3-0.1,7.1-0.1c5.3-0.1,10.6-0.4,15.4-1.3c5.2-1,9.9-2.3,14.7-4.7c4.8-2.4,9-5.8,12.7-9.4c3.6-3.7,7-7.9,9.4-12.7c2.4-4.7,3.7-9.5,4.7-14.7c0.9-4.8,1.3-10.1,1.3-15.4c0-1.8,0-3.3,0.1-7.1c0-3.6,0-6.5,0-8.7V84.2C246,82,246,79.1,246,75.5z M196,93.7c-0.8,59.3-38.7,99.9-95.3,102.5c-23.4,1.1-40.3-6.5-55-15.8c17.3,2.8,38.6-4.1,50.1-13.9c-16.9-1.7-26.9-10.3-31.6-24.1c4.9,0.8,10,0.6,14.7-0.4c-15.3-5.1-26.2-14.5-26.7-34.3c4.3,2,8.8,3.8,14.7,4.1c-11.4-6.5-19.9-30.2-10.2-45.9c17,18.6,37.3,33.8,70.8,35.8c-8.4-35.9,39.2-55.4,59.1-31.3c8.4-1.6,15.3-4.8,21.9-8.3c-2.7,8.3-7.9,14.2-14.3,18.9c7-0.9,13.2-2.6,18.5-5.3C209.4,82.5,202.2,88.6,196,93.7z"/></g></g>
</svg>